<svg width="544" height="195" viewBox="0 0 544 195" fill="none" xmlns="http://www.w3.org/2000/svg">
<path d="M198.071 68.8849C199.937 69.7719 200.727 71.9989 199.833 73.8497L194.311 85.2805C193.231 87.5149 190.529 88.4587 188.276 87.388L188.073 87.2915C185.821 86.2207 184.869 83.5398 185.949 81.3054L191.471 69.8745C192.365 68.0238 194.61 67.2397 196.476 68.1267L198.071 68.8849Z" fill="white"/>
<path d="M125.641 130.882C122.736 131.403 119.842 132.105 117.012 133.02L115.64 121.929L114.364 133.924C113.935 134.136 113.496 134.349 113.067 134.583C113.045 134.583 113.024 134.604 113.003 134.604C105.638 137.39 102.015 140.325 101.811 140.506C101.811 140.506 101.789 140.484 101.779 140.474C101.371 140.144 97.7373 137.284 90.6085 134.593C90.5871 134.593 90.5657 134.593 90.5442 134.572C89.5151 134.189 88.4002 133.806 87.2317 133.434L86.8244 121.684C85.1199 124.8 84.9591 127.745 84.5946 132.647C81.9682 131.924 79.0309 131.286 75.7506 130.776L77.841 113.719C78.6236 107.318 85.6559 102.33 91.8949 101.533C106.656 99.6612 122.34 101.788 123.808 114.644L125.663 130.882H125.641Z" fill="white"/>
<path d="M100.696 98.3006C107.907 98.3006 113.753 92.5016 113.753 85.3485C113.753 78.1953 107.907 72.3966 100.696 72.3966C93.4849 72.3966 87.6391 78.1953 87.6391 85.3485C87.6391 92.5016 93.4849 98.3006 100.696 98.3006Z" fill="white"/>
<path d="M130.165 100.949C136.838 100.949 142.247 95.5829 142.247 88.9642C142.247 82.3455 136.838 76.9799 130.165 76.9799C123.493 76.9799 118.084 82.3455 118.084 88.9642C118.084 95.5829 123.493 100.949 130.165 100.949Z" fill="white"/>
<path d="M70.6265 100.949C77.2989 100.949 82.7079 95.5829 82.7079 88.9642C82.7079 82.3455 77.2989 76.9799 70.6265 76.9799C63.9541 76.9799 58.545 82.3455 58.545 88.9642C58.545 95.5829 63.9541 100.949 70.6265 100.949Z" fill="white"/>
<path d="M79.8885 135.168C59.7135 130.074 42.3042 132.371 31.9809 134.647C27.9073 143.792 23.8229 152.937 19.7493 162.072C29.9869 159.477 45.1665 156.871 63.4869 158.147C79.4061 159.253 92.4202 162.912 101.629 166.282V143.43C95.8185 140.421 88.5396 137.348 79.8885 135.168Z" fill="white"/>
<path d="M171.266 134.657C160.942 132.382 143.533 130.085 123.358 135.178C114.707 137.358 107.428 140.431 101.618 143.441V166.293C110.902 162.986 123.937 159.434 139.824 158.424C158.627 157.233 174.171 160.061 184.602 162.815C180.153 153.426 175.704 144.036 171.255 134.657H171.266Z" fill="white"/>
<path d="M181.182 45.95C182.05 47.0879 153.696 4.62725 107.321 0.363094C67.6785 -3.27366 37.5446 21.4392 29.4724 28.5107C32.4204 31.2755 35.3684 34.051 38.3271 36.8158C43.2583 31.7222 66.2634 9.07221 102.636 7.84933C149.976 6.25426 178.459 42.3558 181.182 45.9394V45.95Z" fill="white"/>
<path d="M29.4724 28.5107C24.0481 33.5618 16.3297 41.9307 10.0799 54.0745C4.0124 65.8461 1.94344 76.0545 1.21448 80.3399C-2.14088 100.214 2.19 116.686 5.34168 125.651C10.0906 123.705 14.8289 121.748 19.5778 119.802C17.0908 113.092 10.573 92.8348 18.1414 69.0576C23.3727 52.639 32.9564 41.9839 38.3164 36.8159C35.3684 34.0511 32.4204 31.2756 29.4617 28.5108L29.4724 28.5107Z" fill="white"/>
<path d="M20.1031 152.692L28.261 135.816C26.6959 133.977 24.9271 131.605 23.2977 128.649C21.4645 125.353 20.3175 122.29 19.5885 119.802C14.8396 121.748 10.1013 123.705 5.35237 125.651C6.73525 129.766 8.69701 134.583 11.5164 139.751C14.3572 144.962 17.3695 149.258 20.1031 152.682V152.692Z" fill="white"/>
<path d="M83.9729 175.077C82.6865 180.521 81.4001 185.966 80.1137 191.41C88.5932 193.505 107.353 196.929 129.801 190.74C151.938 184.647 166.11 172.386 172.327 166.293C162.979 165.889 153.642 165.485 144.294 165.091C139.181 168.25 132.17 171.801 123.38 174.215C106.474 178.862 91.9271 176.831 83.9836 175.077H83.9729Z" fill="white"/>
<path d="M62.8008 165.091C52.9062 165.262 43.0117 165.421 33.1171 165.591C39.2811 171.121 47.9429 177.746 59.3275 183.413C66.9173 187.199 74.0354 189.709 80.1136 191.421C81.4 185.976 82.6864 180.532 83.9728 175.087C80.671 173.779 77.2299 172.301 73.6709 170.632C69.7903 168.813 66.1669 166.952 62.8008 165.102V165.091Z" fill="white"/>
<path d="M177.869 138.624C177.869 138.624 185.266 153.841 185.502 153.724C185.716 153.415 189.651 150.215 193.831 143.398C198.655 135.54 202.525 124.917 202.943 123.768C194.582 128.724 186.22 133.669 177.859 138.624H177.869Z" fill="white"/>
<path d="M153.353 130.01C149.912 129.702 146.642 129.691 143.576 129.681C143.276 126.416 142.997 123.151 142.697 119.887C142.654 123.141 142.611 126.406 142.59 129.67C137.562 129.67 133.017 130.042 128.954 130.616C128.9 130.329 128.847 129.84 128.836 129.798C128.761 129.309 128.697 128.83 128.622 128.341C128.504 127.522 128.375 126.703 128.257 125.895C128.257 125.853 128.257 125.81 128.257 125.789C128 124.055 127.753 122.322 127.518 120.589C127.26 118.866 127.014 117.165 126.756 115.442C126.714 115.197 126.681 114.942 126.649 114.708C126.328 113.188 125.706 111.157 124.452 108.987C123.615 107.509 122.704 106.34 121.89 105.436V103.086C127.335 103.086 132.835 103.086 138.238 103.086C143.137 102.799 147.832 104.798 150.898 108.541C153.406 111.401 153.246 115.325 153.342 118.834C153.438 122.609 153.299 126.235 153.374 130.01H153.353Z" fill="white"/>
<path d="M80.1136 103.341V105.691C79.2989 106.595 78.3877 107.764 77.5515 109.243C76.308 111.422 75.6863 113.454 75.3539 114.964C75.3111 115.208 75.2789 115.463 75.2467 115.697C74.9787 117.42 74.7322 119.122 74.4856 120.844C74.2391 122.577 73.9925 124.311 73.7459 126.044C73.7459 126.076 73.7459 126.119 73.7459 126.15C73.628 126.959 73.4994 127.777 73.3815 128.596C73.3064 129.085 73.2421 129.564 73.1671 130.053C73.1671 130.074 73.1349 130.223 73.1135 130.404C69.4579 129.947 65.4165 129.67 61.0213 129.66C60.6997 129.66 60.3674 129.66 60.0351 129.66C59.8314 129.66 59.617 129.66 59.4133 129.66C59.3811 126.47 59.3383 123.3 59.3061 120.121C59.0167 123.311 58.7379 126.48 58.4485 129.67C55.9079 129.713 53.2493 129.862 50.4514 130.106C50.3978 130.106 50.3442 130.106 50.2906 130.106C49.7546 130.138 49.1971 130.18 48.6504 130.223C48.7255 126.448 48.5861 122.833 48.6826 119.058C48.7898 115.548 48.6183 111.625 51.1267 108.764C54.1927 105.021 58.8987 103.033 63.7871 103.309C69.1899 103.288 74.6893 103.309 80.1351 103.309L80.1136 103.341Z" fill="white"/>
<path d="M189.038 63.2629C191.039 64.2141 191.875 66.5926 190.921 68.568L184.606 81.6387C183.443 84.0456 180.526 85.0645 178.1 83.911L177.877 83.8053C175.451 82.6518 174.424 79.758 175.587 77.351L181.901 64.2804C182.86 62.2954 185.258 61.466 187.249 62.4127L189.038 63.2629Z" fill="white"/>
<path d="M176.808 72.4925C173.817 71.227 170.826 70.2274 167.835 68.962C169.208 66.0909 170.569 62.9644 171.941 60.1039C172.863 58.2005 175.157 57.403 177.065 58.3175L178.995 59.2319C180.914 60.1464 181.718 62.4221 180.796 64.3149L176.851 72.4712C176.851 72.4712 176.819 72.4818 176.808 72.4925Z" fill="white"/>
<path d="M166.838 68.579L158.112 65.4315L161.564 58.4982C161.629 58.4131 161.736 58.2855 161.886 58.1791C162.057 58.0515 162.315 57.9771 162.443 57.9452C163.805 57.6581 167.171 58.0197 167.171 58.0197C167.171 58.0197 168.414 58.1473 170.162 58.7534C170.322 58.8066 170.644 58.9237 170.783 59.2215C170.891 59.4448 170.848 59.7104 170.837 59.7742C170.805 59.9443 170.741 60.0721 170.687 60.1465L166.838 68.5897V68.579Z" fill="white"/>
<path d="M173.249 100.82C173.292 99.8103 173.303 98.7469 173.281 97.6516C173.238 95.4292 173.077 93.3661 172.842 91.4733C170.676 88.3789 168.5 85.2738 166.335 82.1794H173.496C173.839 82.7005 174.385 83.4236 175.232 84.1148C175.447 84.285 176.24 84.923 177.462 85.4228C178.866 86.0076 180.045 86.1033 180.774 86.1564C182.372 86.2734 183.69 86.05 184.58 85.8374C186.456 88.549 189.704 89.6551 192.331 88.6768C194.914 87.7197 195.836 85.1251 195.975 84.721C196.029 86.9648 195.943 89.5594 195.589 92.4199C195.171 95.6951 194.496 98.5556 193.767 100.938C193.049 102.043 190.862 105.106 186.735 106.488C184.601 107.211 182.704 107.233 181.461 107.137C183.583 108.062 185.716 108.987 187.839 109.912C187.935 119.802 187.946 120.94 188.032 130.829L179.252 134.849C176.465 133.168 176.369 133.115 173.581 131.435L172.799 115.399C172.649 118.09 172.466 120.833 172.263 123.619C172.048 126.49 171.802 129.308 171.534 132.073C168.8 131.552 165.852 131.084 162.711 130.723C159.731 130.383 156.912 130.17 154.264 130.053C155.079 121.493 155.893 112.932 156.719 104.383C153.396 99.0766 150.062 93.7704 146.738 88.4535C146.449 87.5603 146.149 86.2736 146.127 84.7104C146.106 82.9345 146.46 81.4882 146.781 80.5311C148.1 78.0747 149.858 75.2568 152.206 72.3538C153.556 70.6843 154.907 69.2169 156.204 67.9409C156.601 67.5474 157.18 67.4091 157.716 67.5579C160.567 68.3767 163.558 69.3231 166.656 70.4077C169.84 71.5243 172.831 72.694 175.629 73.8744C175.94 74.002 176.068 74.3529 175.929 74.6506C175.554 75.4588 174.986 76.4372 174.16 77.4261C173.002 78.8085 171.748 79.7123 170.773 80.2759C170.344 80.5311 169.851 80.6589 169.347 80.6695L160.975 80.9034C163.215 82.3709 166.109 84.6358 168.789 88.0173C170.183 89.7932 171.244 91.5052 172.048 93.0365C172.456 95.6205 172.874 98.2045 173.281 100.789L173.249 100.82Z" fill="white"/>
<path d="M49.4652 72.0557L47.096 65.8244L40.4604 66.3455L40.932 73.5339C39.1311 74.1719 37.4052 75.0119 35.7864 76.054L30.9839 72.045L25.4524 75.7136L29.5152 81.9026C28.7648 82.9022 28.1324 83.9124 27.5856 84.9014L19.5885 84.4548L17.5839 90.7606L24.6055 93.1426C24.5197 93.5892 24.4661 93.9294 24.4447 94.1421C24.4447 94.1421 24.0695 96.2688 24.2196 99.4058L17.5839 101.905L18.0984 108.487L25.924 107.977C26.6208 109.848 27.5749 111.752 28.8935 113.57L25.4524 118.504L29.6546 123.63L34.9932 119.429C36.4296 120.386 38.0591 121.269 39.8922 122.035C39.785 125.055 39.6028 128.192 39.4956 131.212C40.7176 130.956 42.122 130.807 43.5584 130.627C44.9306 130.457 46.2813 130.371 47.482 130.318C47.5141 129.212 47.4927 127.851 47.5356 126.735C47.6428 123.46 47.7928 120.227 47.9536 117.037C46.678 116.888 39.9887 116.005 35.1861 110.05C30.212 103.872 31.0375 96.9175 31.1983 95.7265C31.3269 94.5143 32.2703 86.7196 39.2704 81.8387C48.0072 75.7349 57.9983 79.8822 58.5343 80.1162C59.9279 78.5105 61.3108 76.9047 62.7044 75.299C58.5021 73.0978 53.9354 72.0238 49.4544 72.0557H49.4652Z" fill="white"/>
<path d="M55.1146 82.2326C44.3839 81.3606 34.4679 89.7082 35.6792 100.661C36.0008 104.032 37.3087 107.35 39.4205 110.253C36.6333 107.956 34.693 104.564 34.0176 100.895C31.5735 88.9957 43.5799 78.5958 55.1039 82.2326H55.1146Z" fill="white"/>
<path d="M102.175 17.1858H98.2733V68.7065H102.175V17.1858Z" fill="white"/>
<path d="M103.087 18.4084V35.3267C108.05 34.5823 111.823 35.0929 114.343 35.7096C119.017 36.8474 121.739 38.8785 126.596 38.6233C128.975 38.4957 130.894 37.879 132.116 37.3898V20.7372C130.776 21.1412 128.568 21.641 125.867 21.5134C119.402 21.1944 116.722 17.5259 110.505 17.1856C108.833 17.0899 106.292 17.2068 103.087 18.4084Z" fill="white"/>
<path d="M96.4509 41.9306C96.4509 41.9306 96.4509 42.0155 96.4295 42.0368C95.7434 42.6961 95.0573 43.5468 94.4249 44.4401C94.382 44.4932 94.3498 44.5465 94.3176 44.5891C93.728 45.3441 93.1384 46.2903 92.5381 47.3643C92.3773 47.6408 92.2272 47.8854 92.1093 48.1087C91.7663 48.7361 91.5626 49.1295 91.5626 49.1295C91.4018 49.4378 91.241 49.7357 91.0695 50.0547C89.2685 53.415 88.3466 56.1692 87.8964 57.541C87.5533 58.5831 87.2746 59.5294 87.1031 60.1675C86.0525 64.1232 84.9484 68.8658 85.3772 78.1704H83.126C82.7722 73.8744 82.7508 67.7067 84.3588 60.5714C86.0954 52.8832 89.0648 46.9922 91.3804 43.1428C88.1429 44.8867 81.8181 48.8425 76.8655 56.435C72.7704 62.7302 71.409 68.749 70.9052 72.2263C70.0797 72.1944 69.2436 72.1624 68.4074 72.1199C69.0184 68.2598 70.3584 62.7728 73.6173 57.0199C77.9053 49.4487 83.1474 44.2911 82.3648 44.6633C81.1749 45.195 73.4244 47.8535 66.6493 53.9892C60.7748 59.3061 57.28 65.0589 55.2432 69.1317C55.0074 69.0254 54.4607 68.7596 54.2248 68.6426C53.796 68.4299 53.1743 68.1322 52.7455 67.9302C53.6889 65.9098 54.8359 63.7831 56.2402 61.6031C61.0642 54.117 66.9602 49.1401 71.5805 45.9713C74.1319 44.1848 78.1626 41.7923 83.5762 40.2291C88.754 38.7297 93.2671 38.549 96.3116 38.666C96.3437 38.9212 96.3652 39.2084 96.3866 39.538C96.4081 40.0591 96.4402 40.5588 96.4724 41.0692C96.4724 41.367 96.4938 41.6435 96.4724 41.9306H96.4509Z" fill="white"/>
<path d="M103.998 41.9306C103.998 41.9306 103.998 42.0155 104.019 42.0368C104.705 42.6961 105.391 43.5468 106.024 44.4401C106.067 44.4932 106.099 44.5465 106.131 44.5891C106.721 45.3441 107.31 46.2903 107.911 47.3643C108.071 47.6408 108.222 47.8854 108.339 48.1087C108.682 48.7361 108.886 49.1295 108.886 49.1295C109.047 49.4378 109.208 49.7357 109.379 50.0547C111.18 53.415 112.102 56.1692 112.552 57.541C112.895 58.5831 113.174 59.5294 113.346 60.1675C114.396 64.1232 115.5 68.8658 115.072 78.1704H117.323C117.677 73.8744 117.698 67.7067 116.09 60.5714C114.353 52.8832 111.384 46.9922 109.068 43.1428C112.306 44.8867 118.631 48.8425 123.583 56.435C127.678 62.7302 129.04 68.749 129.544 72.2263C130.369 72.1944 131.205 72.1624 132.041 72.1199C131.43 68.2598 130.09 62.7728 126.831 57.0199C122.543 49.4487 117.301 44.2911 118.084 44.6633C119.274 45.195 127.024 47.8535 133.799 53.9892C139.674 59.3061 143.169 65.0589 145.206 69.1317C145.441 69.0254 145.988 68.7596 146.224 68.6426C146.653 68.4299 147.274 68.1322 147.703 67.9302C146.76 65.9098 145.613 63.7831 144.209 61.6031C139.385 54.117 133.489 49.1401 128.868 45.9713C126.317 44.1848 122.286 41.7923 116.873 40.2291C111.695 38.7297 107.182 38.549 104.137 38.666C104.105 38.9212 104.084 39.2084 104.062 39.538C104.041 40.0591 104.009 40.5588 103.976 41.0692C103.976 41.367 103.955 41.6435 103.976 41.9306H103.998Z" fill="white"/>
<path d="M108.715 158.477C108.715 158.477 131.023 140.059 176.669 157.19C176.669 157.19 137.273 145.738 108.715 158.477Z" fill="white"/>
<path d="M94.532 158.955C94.532 158.955 72.2237 140.538 26.578 157.669C26.578 157.669 65.974 146.216 94.532 158.955Z" fill="white"/>
<path d="M106.699 170.802C106.646 170.727 105.767 171.089 105.659 171.121C105.07 171.355 104.523 171.684 103.966 171.971C103.869 172.014 103.773 172.067 103.676 172.11C103.408 172.237 103.13 172.354 102.851 172.471C102.744 172.514 102.54 172.62 102.368 172.652C102.283 172.673 102.197 172.684 102.133 172.652C101.618 172.407 101.082 172.173 100.546 171.95C97.6302 170.716 94.5106 169.696 91.241 168.856C91.241 168.856 91.2196 168.856 91.2089 168.856C83.8978 166.218 68.4289 165.57 68.4289 165.57C65.2558 165.442 62.2434 165.389 59.2954 165.41C58.7166 165.41 58.1377 165.41 57.5588 165.41C57.3337 165.41 57.1086 165.41 56.8834 165.41C48.479 165.506 40.3425 166.123 33.2566 166.878C33.2137 166.878 33.1601 166.878 33.1065 166.899C31.4449 167.037 29.7297 167.186 27.9609 167.346L11.0447 168.898C11.0662 168.654 11.1734 167.92 11.7737 167.26C12.3526 166.633 13.0494 166.452 13.2959 166.399C21.6361 165.453 29.9655 164.506 38.3057 163.56C47.8679 162.528 55.9294 162.337 61.9969 162.401C69.2436 162.475 74.3463 162.933 78.0126 163.369C78.0126 163.369 88.6682 164.645 94.8537 167.069C95.5719 167.356 95.9364 167.484 96.6439 167.739C97.8982 168.186 98.8094 168.505 99.5598 168.728C100.171 168.909 100.664 169.015 101.136 169.058C101.446 169.089 101.822 169.1 102.261 169.079C102.69 169.1 103.065 169.079 103.376 169.058C103.848 169.015 104.341 168.909 104.952 168.728C105.188 168.962 105.445 169.217 105.681 169.494C106.078 169.93 106.41 170.366 106.721 170.77L106.699 170.802Z" fill="white"/>
<path d="M193.446 168.93L176.529 167.377C174.75 167.218 173.035 167.069 171.384 166.931C171.33 166.931 171.277 166.931 171.234 166.909C164.148 166.144 156.022 165.538 147.607 165.442C147.371 165.442 147.157 165.442 146.931 165.442C146.363 165.442 145.784 165.442 145.195 165.442C142.247 165.421 139.235 165.463 136.061 165.601C136.061 165.601 120.582 166.25 113.281 168.887H113.26C110.001 169.727 106.882 170.759 103.966 171.982C103.419 172.205 102.894 172.428 102.368 172.673C102.283 172.694 102.197 172.705 102.133 172.673C101.95 172.63 101.757 172.524 101.65 172.481C101.371 172.364 101.093 172.248 100.825 172.12C100.728 172.077 100.632 172.035 100.535 171.982C99.9671 171.695 99.4204 171.376 98.8308 171.131C98.7236 171.099 97.8446 170.738 97.791 170.812C98.0804 170.408 98.4342 169.972 98.8308 169.536C99.0667 169.249 99.324 168.993 99.5598 168.77C100.171 168.951 100.664 169.057 101.136 169.1C101.447 169.132 101.822 169.142 102.261 169.121C102.69 169.142 103.065 169.121 103.376 169.1C103.848 169.057 104.341 168.951 104.952 168.77C105.702 168.547 106.614 168.228 107.868 167.781C108.586 167.526 108.94 167.388 109.658 167.112C115.843 164.687 126.499 163.411 126.499 163.411C130.155 162.975 135.268 162.528 142.515 162.443C148.582 162.379 156.655 162.571 166.206 163.602C174.546 164.549 182.876 165.495 191.216 166.441C191.452 166.495 192.148 166.675 192.738 167.303C193.349 167.962 193.456 168.696 193.467 168.94L193.446 168.93Z" fill="white"/>
<path d="M540.216 102.383C539.97 102.617 539.712 102.851 539.455 103.064C535.585 106.286 530.857 107.264 525.937 106.328C525.004 106.148 524.093 105.914 523.193 105.637C522.807 105.52 519.344 104.531 519.355 104.255L519.505 96.7686C520.084 97.194 525.723 100.171 531.254 98.0446C531.854 97.8107 532.401 97.5451 532.884 97.2367C534.17 96.4073 534.363 94.5782 533.334 93.451C527.974 87.6556 516.075 87.0282 519.355 75.1184C521.338 67.8874 531.726 64.8355 540.195 68.5042V76.1072C540.195 76.1072 540.162 76.1285 540.141 76.1498C536.1 74.374 529.475 73.1086 528.156 77.5642C526.752 82.36 540.581 82.9448 543.432 91.6114C544.997 95.5778 543.132 99.6079 540.227 102.383H540.216Z" fill="white"/>
<path d="M469.561 66.8778V88.1986C464.737 81.0952 459.913 73.9918 455.089 66.8778H446.545V106.042H455.089V83.7322C459.913 91.1652 464.737 98.6089 469.561 106.042H478.555V66.8778H469.561Z" fill="white"/>
<path d="M514.467 66.8778V91.6333C514.467 99.9064 507.713 106.606 499.373 106.606C491.033 106.606 484.268 99.9064 484.268 91.6333V66.8778H492.919V92.4732C492.919 96.0036 495.814 98.8641 499.373 98.8641C502.932 98.8641 505.816 96.0036 505.816 92.4732V66.8778H514.467Z" fill="white"/>
<path d="M238.566 98.6409V88.6665H251.677V81.3291H238.566V73.0559H252.481V65.4103H230.076V105.978H253.252V98.6409H238.566Z" fill="white"/>
<path d="M363.315 62.3369H354.824V106.18H363.315V62.3369Z" fill="white"/>
<path d="M255.739 98.5977C257.733 99.3952 260.467 100.214 263.254 100.108C263.597 100.097 265.859 99.9483 266.47 98.938C266.652 98.6403 266.738 98.2894 266.738 97.9066C266.738 96.5667 265.934 95.918 262.879 94.8972C257.465 93.0681 255.375 90.112 255.439 87.007C255.439 82.1154 259.62 78.4148 266.095 78.4148C269.15 78.4148 270.747 78.9465 272.355 79.744C272.28 81.4454 272.43 83.1043 272.355 84.8057C270.587 84.2208 268.646 83.2852 266.041 83.8381C266.041 83.8381 264.026 84.2742 263.49 85.2418C263.34 85.5183 263.254 85.8372 263.254 86.1881C263.254 87.4217 264.273 88.0704 267.478 89.1976C272.452 90.9203 274.542 93.4403 274.596 97.311C274.596 98.736 274.274 100.044 273.62 101.193C271.273 105.35 264.959 105.712 263.243 105.797C261.625 105.882 258.934 105.797 255.729 104.606V98.5977H255.739Z" fill="white"/>
<path d="M334.746 94.6952C335.014 98.0661 338.38 99.6824 342.239 99.6824C343.579 99.6824 345.648 99.4485 347.16 99.2252C348.66 99.0019 349.882 98.7468 350.719 98.566C350.697 100.427 350.665 102.277 350.644 104.138C347.931 105.212 344.619 105.744 341.038 105.744C332.023 105.744 326.867 100.597 326.867 92.3984C326.867 85.7522 331.047 78.4148 340.277 78.4148C348.853 78.4148 352.112 85.0078 352.112 91.4944C352.112 92.8874 351.951 94.121 351.844 94.7058H334.746V94.6952ZM344.469 89.1231C344.469 87.1346 343.601 83.8168 339.806 83.8168C336.332 83.8168 334.917 86.9219 334.703 89.1231H344.469Z" fill="white"/>
<path d="M296.765 104.245C295.403 104.883 292.916 105.819 289.743 105.734C288.339 105.702 283.268 105.563 279.57 101.491C276.354 97.939 276.236 93.6534 276.236 92.271C276.236 83.3599 282.539 78.4045 290.386 78.4045C293.431 78.4045 295.725 79.0214 296.765 79.5637C296.647 81.3077 296.54 83.0515 296.422 84.7955C295.5 84.3488 293.527 83.562 290.998 83.7959C289.829 83.9023 287.471 84.115 285.648 85.9866C283.644 88.0495 283.611 90.7505 283.601 91.8777C283.59 93.1006 283.547 95.8866 285.562 97.8751C287.267 99.5552 289.465 99.7042 290.88 99.7999C293.624 99.9913 295.757 99.0872 296.754 98.5875V104.245H296.765Z" fill="white"/>
<path d="M316.382 101.714C314.142 104.649 311.526 106.127 308.546 106.127C305.909 106.127 303.765 105.212 302.125 103.394C300.485 101.565 299.659 99.0449 299.659 95.8122V78.4045H307.292V95.2166C307.292 98.6726 308.568 100.395 311.119 100.395C312.555 100.395 313.788 99.768 314.807 98.5132C315.825 97.2584 316.34 96.3332 316.34 95.7377V78.4152H324.015V105.617H316.382V101.714Z" fill="white"/>
<path d="M390.265 101.204C390.372 101.416 391.004 102.682 390.426 104.075C390.072 104.915 389.461 105.383 389.171 105.585C388.164 105.967 386.791 106.286 385.194 106.18C384.101 106.106 382.964 106.031 382.042 105.191C381.496 104.702 381.131 104.032 380.938 103.181C378.29 105.18 375.632 106.18 372.973 106.18C371.097 106.18 369.5 105.521 368.182 104.213C366.863 102.905 366.209 101.373 366.209 99.6402C366.209 97.3114 366.884 95.4401 368.246 94.0151C369.607 92.5902 373.713 90.7504 380.585 88.5066C380.756 85.5292 379.352 84.0405 376.382 84.0405C373.156 84.0405 370.186 85.5292 367.463 88.5066V81.6585C370.636 79.4892 374.131 78.4045 377.947 78.4045C384.776 78.4045 388.196 81.1163 388.196 86.5289V98.7045C388.196 99.5871 388.399 100.151 388.818 100.417C388.978 100.523 389.15 100.459 389.45 100.576C389.847 100.725 390.104 100.991 390.275 101.204H390.265ZM380.574 92.7178C378.033 93.6961 376.286 94.5894 375.332 95.3763C374.378 96.1632 373.906 97.1626 373.906 98.3748C373.906 99.1511 374.142 99.8212 374.624 100.374C375.107 100.927 375.686 101.214 376.372 101.214C377.808 101.214 379.212 100.544 380.574 99.1937V92.7178Z" fill="white"/>
<path d="M543.99 112.816H230.076V115.517H543.99V112.816Z" fill="white"/>
<path d="M422.939 101.491C422.736 101.512 422.328 101.512 422.328 101.512C422.328 101.512 421.867 101.512 421.631 101.491C422.082 101.512 422.521 101.512 422.939 101.491Z" fill="white"/>
<path d="M423.604 74.045C426.595 74.045 429.35 75.0659 431.537 76.7673H440.445C439.384 74.917 438.044 73.2474 436.479 71.8437C433.08 68.7812 428.621 66.9097 423.733 66.8778H423.604C420.592 66.8778 417.74 67.5794 415.189 68.8236C416.454 71.0461 417.987 72.9389 419.434 74.7361C420.742 74.2894 422.135 74.0343 423.593 74.0343L423.604 74.045Z" fill="white"/>
<path d="M412.423 93.0153C411.372 91.165 410.772 89.0491 410.772 86.7734C410.772 81.1907 414.395 76.4586 419.445 74.7465C417.987 72.9494 416.464 71.0459 415.199 68.8341C409.475 71.6414 405.294 77.2137 404.34 83.8598C404.34 83.9236 404.319 83.9873 404.308 84.0511C404.308 84.1149 404.286 84.1786 404.286 84.2424C404.276 84.3594 404.254 84.4658 404.244 84.5828C404.233 84.721 404.211 84.8594 404.201 84.9977C404.169 85.3379 404.147 85.6675 404.136 86.0078C404.136 86.0929 404.136 86.178 404.136 86.263C404.136 86.3375 404.136 86.4225 404.136 86.4969C404.136 86.5926 404.136 86.6777 404.136 86.7734C404.136 90.4953 405.133 93.9726 406.881 96.95C408.167 94.7914 410.493 94.185 412.444 93.0153H412.423Z" fill="white"/>
<path d="M412.423 93.0153C410.472 94.185 408.146 94.802 406.859 96.95C409.646 101.714 414.32 105.181 419.841 106.276C420.366 103.926 421.374 101.735 421.867 99.3743C417.815 98.8214 414.363 96.3969 412.434 93.0047L412.423 93.0153Z" fill="white"/>
<path d="M431.054 97.131C428.953 98.6197 426.38 99.5023 423.604 99.5023C423.014 99.5023 422.425 99.4596 421.857 99.3852C421.374 101.746 420.356 103.936 419.83 106.287C420.924 106.51 422.05 106.638 423.207 106.659C423.282 106.659 423.347 106.659 423.422 106.659C423.486 106.659 423.55 106.659 423.593 106.659H423.733C430.722 106.606 436.832 102.809 440.231 97.131H431.044H431.054Z" fill="white"/>
<path d="M230.097 127.054H236.229C241.053 127.054 244.301 130.127 244.301 134.529C244.301 138.932 241.053 142.005 236.229 142.005H230.097V127.054ZM236.143 140.644C240.142 140.644 242.725 138.124 242.725 134.54C242.725 130.957 240.142 128.436 236.143 128.436H231.684V140.655H236.143V140.644Z" fill="white"/>
<path d="M257.423 136.858H247.946C248.118 139.208 249.929 140.772 252.406 140.772C253.788 140.772 255.01 140.282 255.868 139.293L256.726 140.272C255.707 141.463 254.142 142.111 252.352 142.111C248.825 142.111 246.413 139.719 246.413 136.39C246.413 133.062 248.761 130.691 251.945 130.691C255.128 130.691 257.433 133.019 257.433 136.39C257.433 136.518 257.412 136.688 257.412 136.858H257.423ZM247.946 135.731H255.975C255.782 133.53 254.164 131.999 251.945 131.999C249.726 131.999 248.139 133.541 247.946 135.731Z" fill="white"/>
<path d="M265.098 140.186L265.72 138.974C266.792 140.016 268.711 140.792 270.694 140.792C273.513 140.792 274.746 139.612 274.746 138.145C274.746 134.04 265.473 136.56 265.473 131.03C265.473 128.829 267.199 126.926 271.026 126.926C272.731 126.926 274.489 127.415 275.7 128.255L275.164 129.51C273.867 128.68 272.366 128.276 271.026 128.276C268.271 128.276 267.049 129.489 267.049 130.988C267.049 135.093 276.322 132.615 276.322 138.06C276.322 140.261 274.553 142.143 270.705 142.143C268.443 142.143 266.224 141.356 265.109 140.197L265.098 140.186Z" fill="white"/>
<path d="M279.12 127.224C279.12 126.65 279.613 126.161 280.235 126.161C280.856 126.161 281.35 126.629 281.35 127.203C281.35 127.82 280.878 128.309 280.235 128.309C279.591 128.309 279.12 127.82 279.12 127.214V127.224ZM279.463 130.776H280.996V142.005H279.463V130.776Z" fill="white"/>
<path d="M295.671 135.497V142.016H294.139V135.657C294.139 133.285 292.895 132.073 290.74 132.073C288.307 132.073 286.774 133.572 286.774 136.125V142.016H285.241V130.786H286.71V132.86C287.524 131.488 289.057 130.701 291.019 130.701C293.774 130.701 295.671 132.286 295.671 135.508V135.497Z" fill="white"/>
<path d="M310.208 126.161V142.005H308.739V139.783C307.817 141.303 306.241 142.112 304.365 142.112C301.139 142.112 298.727 139.783 298.727 136.391C298.727 132.998 301.139 130.691 304.365 130.691C306.177 130.691 307.721 131.457 308.675 132.913V126.161H310.208ZM308.707 136.391C308.707 133.764 306.895 132.01 304.505 132.01C302.114 132.01 300.281 133.764 300.281 136.391C300.281 139.017 302.093 140.772 304.505 140.772C306.917 140.772 308.707 139.017 308.707 136.391Z" fill="white"/>
<path d="M314.142 127.224C314.142 126.65 314.635 126.161 315.257 126.161C315.879 126.161 316.372 126.629 316.372 127.203C316.372 127.82 315.9 128.309 315.257 128.309C314.614 128.309 314.142 127.82 314.142 127.214V127.224ZM314.485 130.776H316.018V142.005H314.485V130.776Z" fill="white"/>
<path d="M319.138 136.39C319.138 133.041 321.592 130.691 324.969 130.691C326.888 130.691 328.496 131.435 329.407 132.913L328.271 133.679C327.499 132.551 326.288 132.009 324.98 132.009C322.504 132.009 320.692 133.764 320.692 136.39C320.692 139.017 322.504 140.772 324.98 140.772C326.288 140.772 327.499 140.261 328.271 139.123L329.407 139.889C328.507 141.346 326.888 142.111 324.969 142.111C321.592 142.111 319.138 139.74 319.138 136.39Z" fill="white"/>
<path d="M340.942 135.04V142.005H339.473V140.251C338.787 141.399 337.447 142.112 335.582 142.112C333.02 142.112 331.444 140.793 331.444 138.847C331.444 137.114 332.559 135.667 335.818 135.667H339.409V134.987C339.409 133.062 338.305 132.02 336.204 132.02C334.735 132.02 333.363 132.53 332.43 133.349L331.744 132.222C332.881 131.265 334.564 130.701 336.354 130.701C339.28 130.701 340.942 132.158 340.942 135.061V135.04ZM339.42 138.634V136.795H335.871C333.674 136.795 332.966 137.645 332.966 138.804C332.966 140.102 334.017 140.92 335.829 140.92C337.64 140.92 338.819 140.112 339.42 138.634Z" fill="white"/>
<path d="M345.112 126.161H346.645V142.005H345.112V126.161Z" fill="white"/>
<path d="M350.558 127.224C350.558 126.65 351.051 126.161 351.673 126.161C352.294 126.161 352.788 126.629 352.788 127.203C352.788 127.82 352.316 128.309 351.673 128.309C351.029 128.309 350.558 127.82 350.558 127.214V127.224ZM350.901 130.776H352.434V142.005H350.901V130.776Z" fill="white"/>
<path d="M355.125 140.729L355.811 139.538C356.711 140.24 358.244 140.804 359.841 140.804C361.996 140.804 362.875 140.081 362.875 138.964C362.875 136.04 355.532 138.347 355.532 133.902C355.532 132.063 357.118 130.701 360.013 130.701C361.482 130.701 363.068 131.106 364.011 131.744L363.347 132.956C362.361 132.275 361.171 131.999 360.013 131.999C357.965 131.999 357.065 132.786 357.065 133.86C357.065 136.89 364.408 134.604 364.408 138.921C364.408 140.867 362.682 142.122 359.734 142.122C357.858 142.122 356.057 141.527 355.125 140.74V140.729Z" fill="white"/>
<path d="M385.912 135.497V142.016H384.379V135.657C384.379 133.285 383.179 132.073 381.131 132.073C378.805 132.073 377.336 133.572 377.336 136.125V142.016H375.803V135.657C375.803 133.285 374.603 132.073 372.534 132.073C370.229 132.073 368.75 133.572 368.75 136.125V142.016H367.217V130.786H368.685V132.839C369.479 131.488 370.947 130.701 372.845 130.701C374.742 130.701 376.179 131.488 376.875 133.073C377.69 131.616 379.309 130.701 381.356 130.701C384.111 130.701 385.923 132.286 385.923 135.508L385.912 135.497Z" fill="white"/>
<path d="M388.978 136.39C388.978 133.062 391.433 130.691 394.746 130.691C398.058 130.691 400.492 133.062 400.492 136.39C400.492 139.719 398.058 142.111 394.746 142.111C391.433 142.111 388.978 139.719 388.978 136.39ZM398.948 136.39C398.948 133.764 397.158 132.009 394.746 132.009C392.334 132.009 390.522 133.764 390.522 136.39C390.522 139.017 392.334 140.772 394.746 140.772C397.158 140.772 398.948 139.017 398.948 136.39Z" fill="white"/>
<path d="M408.146 140.186L408.767 138.974C409.839 140.016 411.758 140.792 413.742 140.792C416.561 140.792 417.794 139.612 417.794 138.145C417.794 134.04 408.521 136.56 408.521 131.03C408.521 128.829 410.247 126.926 414.074 126.926C415.778 126.926 417.536 127.415 418.748 128.255L418.212 129.51C416.915 128.68 415.414 128.276 414.074 128.276C411.319 128.276 410.097 129.489 410.097 130.988C410.097 135.093 419.37 132.615 419.37 138.06C419.37 140.261 417.601 142.143 413.752 142.143C411.49 142.143 409.271 141.356 408.156 140.197L408.146 140.186Z" fill="white"/>
<path d="M421.374 136.39C421.374 133.062 423.829 130.691 427.142 130.691C430.454 130.691 432.887 133.062 432.887 136.39C432.887 139.719 430.454 142.111 427.142 142.111C423.829 142.111 421.374 139.719 421.374 136.39ZM431.344 136.39C431.344 133.764 429.554 132.009 427.142 132.009C424.73 132.009 422.918 133.764 422.918 136.39C422.918 139.017 424.73 140.772 427.142 140.772C429.554 140.772 431.344 139.017 431.344 136.39Z" fill="white"/>
<path d="M434.881 136.39C434.881 133.041 437.336 130.691 440.713 130.691C442.632 130.691 444.24 131.435 445.151 132.913L444.015 133.679C443.243 132.551 442.032 132.009 440.724 132.009C438.247 132.009 436.436 133.764 436.436 136.39C436.436 139.017 438.247 140.772 440.724 140.772C442.032 140.772 443.243 140.261 444.015 139.123L445.151 139.889C444.251 141.346 442.632 142.111 440.713 142.111C437.336 142.111 434.881 139.74 434.881 136.39Z" fill="white"/>
<path d="M447.799 127.224C447.799 126.65 448.292 126.161 448.914 126.161C449.536 126.161 450.029 126.629 450.029 127.203C450.029 127.82 449.557 128.309 448.914 128.309C448.271 128.309 447.799 127.82 447.799 127.214V127.224ZM448.153 130.776H449.686V142.005H448.153V130.776Z" fill="white"/>
<path d="M452.805 136.39C452.805 133.062 455.26 130.691 458.573 130.691C461.885 130.691 464.318 133.062 464.318 136.39C464.318 139.719 461.885 142.111 458.573 142.111C455.26 142.111 452.805 139.719 452.805 136.39ZM462.764 136.39C462.764 133.764 460.974 132.009 458.562 132.009C456.15 132.009 454.338 133.764 454.338 136.39C454.338 139.017 456.15 140.772 458.562 140.772C460.974 140.772 462.764 139.017 462.764 136.39Z" fill="white"/>
<path d="M478.919 136.39C478.919 139.804 476.507 142.111 473.28 142.111C471.469 142.111 469.925 141.346 468.971 139.889V146.142H467.438V130.765H468.907V132.987C469.829 131.499 471.404 130.68 473.28 130.68C476.507 130.68 478.919 132.987 478.919 136.38V136.39ZM477.397 136.39C477.397 133.785 475.564 132.009 473.173 132.009C470.783 132.009 468.95 133.785 468.95 136.39C468.95 138.996 470.761 140.771 473.173 140.771C475.585 140.771 477.397 139.017 477.397 136.39Z" fill="white"/>
<path d="M480.913 136.39C480.913 133.062 483.368 130.691 486.68 130.691C489.993 130.691 492.426 133.062 492.426 136.39C492.426 139.719 489.993 142.111 486.68 142.111C483.368 142.111 480.913 139.719 480.913 136.39ZM490.872 136.39C490.872 133.764 489.082 132.009 486.67 132.009C484.258 132.009 482.446 133.764 482.446 136.39C482.446 139.017 484.258 140.772 486.67 140.772C489.082 140.772 490.872 139.017 490.872 136.39Z" fill="white"/>
<path d="M495.557 126.161H497.09V142.005H495.557V126.161Z" fill="white"/>
<path d="M503.672 126.394H505.719L502.235 129.042H500.734L503.682 126.394H503.672ZM501.345 130.775H502.878V142.005H501.345V130.775Z" fill="white"/>
<path d="M513.105 141.324C512.505 141.856 511.594 142.111 510.715 142.111C508.581 142.111 507.402 140.92 507.402 138.847V132.052H505.376V130.765H507.402V128.309H508.935V130.765H512.376V132.052H508.935V138.751C508.935 140.08 509.621 140.803 510.897 140.803C511.519 140.803 512.14 140.612 512.58 140.229L513.116 141.314L513.105 141.324Z" fill="white"/>
<path d="M515.539 127.224C515.539 126.65 516.032 126.161 516.654 126.161C517.275 126.161 517.768 126.629 517.768 127.203C517.768 127.82 517.297 128.309 516.654 128.309C516.01 128.309 515.539 127.82 515.539 127.214V127.224ZM515.882 130.776H517.415V142.005H515.882V130.776Z" fill="white"/>
<path d="M520.534 136.39C520.534 133.041 522.989 130.691 526.366 130.691C528.285 130.691 529.893 131.435 530.804 132.913L529.668 133.679C528.896 132.551 527.684 132.009 526.377 132.009C523.9 132.009 522.089 133.764 522.089 136.39C522.089 139.017 523.9 140.772 526.377 140.772C527.684 140.772 528.896 140.261 529.668 139.123L530.804 139.889C529.903 141.346 528.285 142.111 526.366 142.111C522.989 142.111 520.534 139.74 520.534 136.39Z" fill="white"/>
<path d="M532.476 136.39C532.476 133.062 534.931 130.691 538.244 130.691C541.556 130.691 543.99 133.062 543.99 136.39C543.99 139.719 541.556 142.111 538.244 142.111C534.931 142.111 532.476 139.719 532.476 136.39ZM542.435 136.39C542.435 133.764 540.645 132.009 538.233 132.009C535.821 132.009 534.009 133.764 534.009 136.39C534.009 139.017 535.821 140.772 538.233 140.772C540.645 140.772 542.435 139.017 542.435 136.39Z" fill="white"/>
</svg>
