<svg width="365" height="352" viewBox="0 0 365 352" fill="none" xmlns="http://www.w3.org/2000/svg">
<path d="M358.421 126.054C360.161 126.888 360.899 128.982 360.065 130.722L347.07 157.84C346.063 159.941 343.541 160.828 341.44 159.821L334.046 156.278C331.944 155.271 331.057 152.75 332.064 150.648L345.059 123.531C345.893 121.791 347.987 121.053 349.728 121.888L358.421 126.054Z" fill="#E01012"/>
<path d="M225.489 236.827C220.269 237.777 215.079 239.037 210.009 240.687L207.539 220.607L205.249 242.317C204.479 242.697 203.689 243.087 202.929 243.507C202.889 243.527 202.859 243.547 202.819 243.547C189.609 248.577 183.089 253.907 182.719 254.217L182.699 254.237H182.679L182.659 254.217C182.659 254.217 182.619 254.197 182.609 254.177C181.879 253.577 175.359 248.407 162.569 243.547C162.529 243.547 162.499 243.527 162.459 243.507C160.609 242.807 158.619 242.117 156.509 241.457L155.779 220.187C152.719 225.827 152.429 231.147 151.769 240.027C147.049 238.727 141.779 237.557 135.899 236.637L139.649 205.777C141.059 194.187 153.669 185.167 164.869 183.727C191.369 180.337 219.519 184.187 222.159 207.447L225.489 236.827Z" fill="#008834"/>
<path d="M180.729 177.877C193.674 177.877 204.169 167.382 204.169 154.437C204.169 141.491 193.674 130.997 180.729 130.997C167.783 130.997 157.289 141.491 157.289 154.437C157.289 167.382 167.783 177.877 180.729 177.877Z" fill="#008834"/>
<path d="M233.609 182.667C245.588 182.667 255.299 172.956 255.299 160.977C255.299 148.998 245.588 139.287 233.609 139.287C221.63 139.287 211.919 148.998 211.919 160.977C211.919 172.956 221.63 182.667 233.609 182.667Z" fill="#002985"/>
<path d="M126.759 182.667C138.738 182.667 148.449 172.956 148.449 160.977C148.449 148.998 138.738 139.287 126.759 139.287C114.78 139.287 105.069 148.998 105.069 160.977C105.069 172.956 114.78 182.667 126.759 182.667Z" fill="#FD8B15"/>
<path d="M143.369 244.587C107.159 235.367 75.9089 239.527 57.3889 243.657C50.0689 260.197 42.7489 276.747 35.4289 293.287C53.8089 288.597 81.0489 283.887 113.939 286.177C142.519 288.177 165.879 294.797 182.399 300.897V259.537C171.969 254.087 158.909 248.537 143.379 244.587H143.369Z" fill="#0B2C88"/>
<path d="M307.389 243.647C288.869 239.527 257.619 235.367 221.409 244.577C205.889 248.527 192.819 254.077 182.389 259.527V300.887C199.059 294.897 222.459 288.477 250.969 286.657C284.729 284.497 312.619 289.617 331.339 294.597C323.359 277.607 315.369 260.627 307.389 243.637V243.647Z" fill="#EC141A"/>
<path d="M325.179 83.1368C326.739 85.2068 275.849 8.35686 192.609 0.656857C121.449 -5.92314 67.3689 38.7968 52.8889 51.5968C58.1889 56.6068 63.4789 61.6168 68.7789 66.6268C77.6289 57.4068 118.919 16.4269 184.199 14.2069C269.159 11.3269 320.279 76.6568 325.179 83.1368Z" fill="#FD8813"/>
<path d="M52.8889 51.5968C43.1489 60.7368 29.3089 75.8867 18.0789 97.8567C7.18891 119.157 3.46889 137.637 2.17889 145.387C-3.84111 181.347 3.92892 211.157 9.58892 227.377C18.1089 223.847 26.6189 220.317 35.1389 216.787C30.6689 204.647 18.9689 167.987 32.5689 124.967C41.9589 95.2668 59.1489 75.9767 68.7889 66.6367C63.4889 61.6267 58.1989 56.6167 52.8989 51.6067L52.8889 51.5968Z" fill="#008B31"/>
<path d="M36.0589 276.287L50.6989 245.757C47.8889 242.437 44.7189 238.127 41.7789 232.787C38.4989 226.827 36.4389 221.277 35.1189 216.787C26.5989 220.317 18.0889 223.847 9.56891 227.377C12.0589 234.827 15.5789 243.547 20.6289 252.887C25.7189 262.307 31.1389 270.097 36.0489 276.287H36.0589Z" fill="#242688"/>
<path d="M150.709 316.787C148.399 326.637 146.089 336.487 143.779 346.347C159.009 350.127 192.659 356.327 232.959 345.137C272.699 334.107 298.129 311.927 309.289 300.897C292.519 300.167 275.749 299.447 258.979 298.717C249.799 304.437 237.219 310.857 221.439 315.227C191.089 323.627 164.989 319.957 150.719 316.787H150.709Z" fill="#DE0F12"/>
<path d="M112.699 298.717C94.9389 299.017 77.1889 299.317 59.4289 299.617C70.4889 309.617 86.0489 321.607 106.469 331.857C120.099 338.707 132.859 343.257 143.779 346.347C146.089 336.497 148.399 326.647 150.709 316.787C144.789 314.417 138.599 311.747 132.209 308.727C125.239 305.437 118.729 302.067 112.699 298.717Z" fill="#021A73"/>
<path d="M319.239 250.837C319.239 250.837 332.509 278.367 332.939 278.167C333.319 277.607 340.379 271.827 347.889 259.477C356.539 245.247 363.499 226.047 364.249 223.967C349.239 232.927 334.239 241.887 319.229 250.847L319.239 250.837Z" fill="#DE1013"/>
<path d="M275.239 235.247C269.069 234.697 263.199 234.667 257.689 234.647C257.159 228.737 256.649 222.837 256.119 216.927C256.049 222.817 255.969 228.717 255.919 234.627C246.899 234.647 238.729 235.307 231.449 236.347C231.359 235.837 231.249 234.937 231.229 234.867C231.099 233.987 230.969 233.107 230.849 232.227C230.629 230.747 230.409 229.267 230.189 227.797C230.189 227.727 230.169 227.647 230.169 227.597C229.709 224.467 229.269 221.317 228.829 218.187C228.369 215.077 227.929 211.987 227.459 208.867C227.389 208.427 227.329 207.967 227.259 207.527C226.669 204.777 225.559 201.107 223.329 197.167C221.829 194.497 220.199 192.367 218.739 190.747V186.497C228.509 186.497 238.379 186.477 248.079 186.517C256.869 186.007 265.299 189.607 270.809 196.387C275.309 201.567 275.019 208.667 275.199 215.017C275.359 221.847 275.119 228.407 275.249 235.237L275.239 235.247Z" fill="#002781"/>
<path d="M143.769 186.987V191.237C142.309 192.867 140.679 194.987 139.179 197.657C136.949 201.597 135.829 205.267 135.249 208.017C135.179 208.457 135.119 208.917 135.049 209.357C134.569 212.467 134.129 215.557 133.679 218.677C133.239 221.807 132.799 224.957 132.339 228.087C132.339 228.137 132.319 228.217 132.319 228.287C132.099 229.747 131.879 231.237 131.659 232.717C131.529 233.597 131.399 234.477 131.279 235.357C131.259 235.397 131.229 235.667 131.189 235.997C124.619 235.177 117.369 234.657 109.479 234.647C108.889 234.647 108.309 234.647 107.699 234.667C107.329 234.667 106.949 234.667 106.579 234.687C106.529 228.917 106.449 223.177 106.379 217.427C105.869 223.197 105.359 228.937 104.839 234.707C100.279 234.777 95.5089 235.057 90.4889 235.497C90.3989 235.497 90.2889 235.517 90.1989 235.517C89.2289 235.567 88.2389 235.647 87.2489 235.737C87.3789 228.907 87.1389 222.357 87.2989 215.527C87.4789 209.177 87.1889 202.077 91.6889 196.897C97.1989 190.127 105.639 186.517 114.419 187.027C124.119 186.987 133.989 187.007 143.759 187.007L143.769 186.987Z" fill="#FD8B15"/>
<path d="M342.402 115.972C344.269 116.866 345.049 119.103 344.158 120.961L329.517 151.514C328.432 153.777 325.711 154.735 323.447 153.65L315.484 149.834C313.221 148.75 312.263 146.029 313.347 143.765L327.989 113.212C328.884 111.345 331.12 110.565 332.978 111.456L342.402 115.972Z" fill="#E01012"/>
<path d="M317.339 131.167C311.969 128.887 306.599 127.067 301.229 124.787C303.689 119.597 306.139 113.947 308.599 108.757C310.249 105.317 314.369 103.867 317.809 105.517L321.269 107.177C324.709 108.827 326.159 112.947 324.509 116.377L317.439 131.137C317.439 131.137 317.379 131.157 317.349 131.167H317.339Z" fill="#E01012"/>
<path d="M299.439 124.087L283.789 118.387L289.989 105.837C290.109 105.677 290.289 105.447 290.569 105.247C290.879 105.027 291.339 104.867 291.569 104.827C294.009 104.317 300.059 104.967 300.059 104.967C300.059 104.967 302.289 105.207 305.429 106.297C305.709 106.397 306.299 106.607 306.539 107.147C306.729 107.557 306.649 108.027 306.629 108.137C306.569 108.447 306.449 108.667 306.359 108.807L299.439 124.087Z" fill="#E01012"/>
<path d="M310.949 182.447C311.019 180.617 311.039 178.707 311.009 176.727C310.939 172.717 310.639 168.977 310.209 165.547C306.319 159.937 302.419 154.327 298.529 148.727H311.379C311.989 149.667 312.979 150.987 314.499 152.227C314.879 152.537 316.299 153.677 318.499 154.607C321.019 155.657 323.139 155.827 324.449 155.927C327.309 156.147 329.689 155.747 331.279 155.347C334.639 160.247 340.469 162.247 345.179 160.487C349.819 158.747 351.479 154.047 351.719 153.327C351.819 157.387 351.669 162.087 351.019 167.257C350.279 173.187 349.049 178.367 347.749 182.677C346.459 184.687 342.529 190.207 335.129 192.727C331.299 194.027 327.889 194.067 325.669 193.897C329.489 195.567 333.299 197.247 337.119 198.917C337.289 216.807 337.309 218.877 337.469 236.767L321.709 244.037C316.709 241.007 316.539 240.897 311.539 237.867L310.139 208.847C309.869 213.717 309.549 218.677 309.169 223.717C308.779 228.917 308.339 234.017 307.849 239.017C302.939 238.077 297.649 237.227 292.009 236.577C286.669 235.957 281.599 235.577 276.839 235.367C278.309 219.877 279.769 204.397 281.239 188.907C275.269 179.297 269.299 169.697 263.329 160.087C262.819 158.467 262.269 156.147 262.239 153.317C262.199 150.097 262.839 147.477 263.409 145.757C265.769 141.317 268.929 136.217 273.149 130.957C275.569 127.937 277.999 125.287 280.319 122.977C281.039 122.267 282.069 122.007 283.039 122.287C288.159 123.767 293.519 125.477 299.079 127.447C304.789 129.467 310.159 131.577 315.189 133.717C315.739 133.947 315.979 134.577 315.719 135.117C315.039 136.587 314.029 138.357 312.549 140.147C310.479 142.647 308.229 144.277 306.469 145.307C305.689 145.767 304.809 145.997 303.909 146.027L288.869 146.457C292.889 149.107 298.099 153.217 302.889 159.337C305.399 162.537 307.299 165.657 308.729 168.427C309.469 173.097 310.209 177.777 310.949 182.447Z" fill="#E01012"/>
<path d="M88.7589 130.397L84.5089 119.127L72.5889 120.057L73.4489 133.057C70.2189 134.207 67.1289 135.727 64.2189 137.607L55.5989 130.357L45.6589 136.997L52.9489 148.207C51.6089 150.017 50.4589 151.847 49.4789 153.637L35.1289 152.827L31.5389 164.237L44.1489 168.557C43.9989 169.357 43.9089 169.987 43.8489 170.377C43.8489 170.377 43.1789 174.227 43.4389 179.897L31.5389 184.427L32.4689 196.347L46.5089 195.417C47.7589 198.797 49.4789 202.237 51.8289 205.547L45.6489 214.477L53.1889 223.747L62.7689 216.147C65.3489 217.887 68.2589 219.477 71.5589 220.857C71.3589 226.317 71.0489 231.997 70.8489 237.457C73.0489 236.987 75.5689 236.727 78.1489 236.407C80.6089 236.097 83.0289 235.947 85.1889 235.857C85.2389 233.847 85.2189 231.397 85.2789 229.377C85.4789 223.457 85.7289 217.607 86.0389 211.837C83.7389 211.577 71.7389 209.977 63.1289 199.187C54.2089 188.007 55.6789 175.427 55.9689 173.267C56.1989 171.077 57.8989 156.977 70.4589 148.127C86.1489 137.077 104.069 144.587 105.039 145.007C107.529 142.097 110.019 139.187 112.519 136.287C104.979 132.297 96.7789 130.367 88.7389 130.427L88.7589 130.397Z" fill="#012B8A"/>
<path d="M98.9089 148.797C79.0889 146.177 60.7289 161.837 63.3189 182.257C64.0589 188.487 66.6489 194.537 70.7589 199.507C66.0789 195.077 62.819 188.997 61.779 182.477C58.089 161.147 78.2689 143.627 98.9189 148.807L98.9089 148.797Z" fill="#012B8A"/>
<path d="M183.379 31.0967H176.369V124.327H183.379V31.0967Z" fill="#008834"/>
<path d="M185.009 63.9268C193.919 62.5668 200.679 63.5168 205.219 64.6268C213.609 66.6868 218.489 70.3568 227.209 69.8968C231.489 69.6768 234.929 68.5468 237.119 67.6568V37.5169C234.709 38.2369 230.739 39.1568 225.899 38.9168C214.299 38.3468 209.499 31.7067 198.329 31.0867C195.339 30.9267 190.759 31.1267 185.009 33.3067V63.9268Z" fill="#E60F13"/>
<path d="M173.109 75.8766C173.109 75.9466 173.089 76.0265 173.069 76.0765C171.839 77.2665 170.599 78.8066 169.459 80.4366C169.389 80.5266 169.329 80.6167 169.259 80.7067C168.199 82.0767 167.139 83.7767 166.079 85.7167C165.789 86.2067 165.529 86.6665 165.309 87.0665C164.689 88.1965 164.319 88.9166 164.319 88.9166C164.029 89.4666 163.729 90.0165 163.439 90.5865C160.199 96.6665 158.549 101.657 157.749 104.127C157.129 106.017 156.629 107.737 156.319 108.887C154.429 116.047 152.459 124.627 153.229 141.467H149.189C148.549 133.687 148.509 122.547 151.399 109.617C154.509 95.7066 159.839 85.0365 164.009 78.0765C158.209 81.2265 146.839 88.3966 137.969 102.127C130.609 113.507 128.179 124.397 127.259 130.697C125.779 130.647 124.279 130.587 122.779 130.517C123.879 123.527 126.279 113.607 132.129 103.187C139.819 89.4967 149.239 80.1665 147.829 80.8165C145.689 81.7865 131.779 86.5866 119.629 97.6866C109.089 107.317 102.809 117.707 99.1489 125.087C98.7289 124.887 97.7389 124.407 97.3189 124.207C96.5489 123.827 95.4289 123.287 94.6689 122.927C96.3489 119.267 98.4189 115.427 100.949 111.467C109.609 97.9267 120.189 88.9166 128.479 83.1866C133.059 79.9466 140.299 75.6267 149.999 72.7867C159.299 70.0767 167.389 69.7467 172.859 69.9467C172.909 70.4067 172.949 70.9367 172.989 71.5167C173.029 72.4467 173.079 73.3667 173.139 74.2767C173.159 74.8067 173.179 75.3165 173.119 75.8365L173.109 75.8766Z" fill="#008C32"/>
<path d="M186.639 75.8766C186.639 75.9466 186.659 76.0265 186.679 76.0765C187.909 77.2665 189.149 78.8066 190.289 80.4366C190.359 80.5266 190.419 80.6167 190.489 80.7067C191.549 82.0767 192.609 83.7767 193.669 85.7167C193.959 86.2067 194.219 86.6665 194.439 87.0665C195.059 88.1965 195.429 88.9166 195.429 88.9166C195.719 89.4666 196.019 90.0165 196.309 90.5865C199.549 96.6665 201.199 101.657 201.999 104.127C202.619 106.017 203.119 107.737 203.429 108.887C205.319 116.047 207.289 124.627 206.519 141.467H210.559C211.199 133.687 211.239 122.547 208.349 109.617C205.239 95.7066 199.909 85.0365 195.739 78.0765C201.539 81.2265 212.909 88.3966 221.779 102.127C229.139 113.507 231.569 124.397 232.489 130.697C233.969 130.647 235.469 130.587 236.969 130.517C235.869 123.527 233.469 113.607 227.619 103.187C219.929 89.4967 210.509 80.1665 211.919 80.8165C214.059 81.7865 227.969 86.5866 240.119 97.6866C250.659 107.317 256.939 117.707 260.599 125.087C261.019 124.887 262.009 124.407 262.429 124.207C263.199 123.827 264.319 123.287 265.079 122.927C263.399 119.267 261.329 115.427 258.799 111.467C250.139 97.9267 239.559 88.9166 231.269 83.1866C226.689 79.9466 219.449 75.6267 209.749 72.7867C200.449 70.0767 192.359 69.7467 186.889 69.9467C186.839 70.4067 186.799 70.9367 186.759 71.5167C186.719 72.4467 186.669 73.3667 186.609 74.2767C186.589 74.8067 186.569 75.3165 186.629 75.8365L186.639 75.8766Z" fill="#008C32"/>
<path d="M195.109 286.757C195.109 286.757 235.139 253.427 317.069 284.417C317.069 284.417 246.349 263.697 195.109 286.757Z" fill="#FEFEFE"/>
<path d="M169.659 287.617C169.659 287.617 129.629 254.287 47.6989 285.277C47.6989 285.277 118.419 264.557 169.659 287.617Z" fill="#FEFEFE"/>
<path d="M191.499 309.067C191.399 308.927 189.819 309.577 189.629 309.647C188.569 310.067 187.599 310.677 186.589 311.187C186.409 311.267 186.239 311.367 186.059 311.447C185.579 311.687 185.079 311.897 184.589 312.107C184.399 312.187 184.029 312.377 183.719 312.447C183.559 312.497 183.419 312.507 183.299 312.467L183.279 312.447C182.349 312.017 181.389 311.597 180.429 311.197C175.189 308.967 169.599 307.117 163.739 305.587C163.719 305.587 163.709 305.567 163.689 305.567C150.569 300.797 122.789 299.627 122.789 299.627C117.099 299.387 111.689 299.307 106.399 299.337C105.359 299.337 104.319 299.337 103.289 299.357C102.889 299.357 102.489 299.377 102.069 299.377C86.9789 299.557 72.3889 300.657 59.6689 302.037C59.5889 302.057 59.4889 302.057 59.3989 302.067C56.4189 302.327 53.3389 302.597 50.1589 302.887L19.7889 305.687C19.8189 305.237 20.0089 303.907 21.0989 302.727C22.1389 301.587 23.3889 301.267 23.8189 301.177C38.7789 299.467 53.7389 297.747 68.7089 296.037C85.8689 294.177 100.349 293.827 111.239 293.937C124.249 294.077 133.409 294.897 139.979 295.687C139.979 295.687 159.109 297.997 170.209 302.387C171.509 302.897 172.149 303.137 173.429 303.607C175.689 304.427 177.319 304.997 178.669 305.397C179.759 305.717 180.659 305.907 181.489 305.987C182.049 306.037 182.719 306.067 183.509 306.017C184.279 306.067 184.949 306.037 185.509 305.987C186.359 305.907 187.239 305.717 188.329 305.397C188.759 305.817 189.209 306.277 189.639 306.787C190.339 307.567 190.949 308.357 191.499 309.097V309.067Z" fill="#072273"/>
<path d="M347.199 305.667L316.829 302.867C313.639 302.577 310.569 302.307 307.589 302.047C307.489 302.027 307.399 302.027 307.319 302.017C294.599 300.637 280.009 299.537 264.919 299.357C264.499 299.357 264.099 299.337 263.699 299.337C262.669 299.317 261.629 299.317 260.589 299.317C255.299 299.287 249.889 299.367 244.199 299.607C244.199 299.607 216.419 300.777 203.299 305.547C203.279 305.547 203.269 305.567 203.249 305.567C197.399 307.087 191.799 308.947 186.569 311.177C185.589 311.577 184.649 311.997 183.699 312.427C183.539 312.477 183.399 312.487 183.279 312.447L183.259 312.427C182.939 312.367 182.589 312.167 182.399 312.087C181.899 311.877 181.409 311.667 180.929 311.427C180.749 311.347 180.579 311.267 180.419 311.167C179.389 310.657 178.419 310.057 177.359 309.627C177.169 309.567 175.579 308.907 175.489 309.047C176.019 308.307 176.639 307.527 177.349 306.737C177.779 306.227 178.229 305.757 178.659 305.347C179.749 305.667 180.649 305.857 181.479 305.937C182.039 305.987 182.709 306.017 183.499 305.967C184.269 306.017 184.939 305.987 185.499 305.937C186.349 305.857 187.229 305.667 188.319 305.347C189.669 304.947 191.299 304.367 193.559 303.557C194.839 303.097 195.479 302.857 196.779 302.337C207.879 297.947 227.009 295.637 227.009 295.637C233.579 294.857 242.739 294.037 255.749 293.887C266.639 293.777 281.119 294.127 298.279 295.987C313.239 297.697 328.199 299.417 343.169 301.127C343.599 301.227 344.849 301.547 345.889 302.677C346.979 303.867 347.169 305.187 347.199 305.637V305.667Z" fill="#460C0C"/>
</svg>
