<svg width="475" height="133" viewBox="0 0 475 133" fill="none" xmlns="http://www.w3.org/2000/svg">
<path d="M0 114.63C0 108.41 3.82002 104.54 8.08002 104.54C10.25 104.54 11.67 105.38 13.31 106.76L13.18 103.47V96.0801H16.34V124.19H13.73L13.46 121.93H13.35C11.9 123.42 9.91 124.67 7.69 124.67C3.03 124.67 0 121.02 0 114.63ZM13.17 109.27C11.58 107.81 10.14 107.28 8.62 107.28C5.64 107.28 3.26001 110.24 3.26001 114.61C3.26001 119.21 5.11 121.95 8.38 121.95C10.11 121.95 11.6 121.09 13.17 119.33V109.27Z" fill="#646569"/>
<path d="M21.26 114.63C21.26 108.39 25.35 104.54 29.65 104.54C34.41 104.54 37.1 108.05 37.1 113.54C37.1 114.23 37.04 114.91 36.95 115.38H24.38C24.61 119.44 27.03 122.08 30.58 122.08C32.37 122.08 33.84 121.49 35.22 120.55L36.35 122.68C34.71 123.78 32.73 124.67 30.19 124.67C25.22 124.67 21.25 120.93 21.25 114.63H21.26ZM34.31 113.06C34.31 109.22 32.63 107.13 29.71 107.13C27.09 107.13 24.74 109.3 24.36 113.06H34.32H34.31Z" fill="#646569"/>
<path d="M47.86 120.82L49.78 118.56C51.59 120.49 54.11 121.77 56.73 121.77C60.03 121.77 62 120.08 62 117.56C62 114.92 60.17 114.07 57.79 113L54.17 111.36C51.82 110.33 49.07 108.5 49.07 104.69C49.07 100.88 52.42 97.8201 57 97.8201C59.99 97.8201 62.65 99.15 64.42 101.03L62.72 103.15C61.18 101.65 59.33 100.72 57 100.72C54.18 100.72 52.3 102.19 52.3 104.5C52.3 106.99 54.5 107.93 56.47 108.78L60.06 110.38C62.97 111.67 65.25 113.45 65.25 117.3C65.25 121.39 61.96 124.66 56.66 124.66C53.12 124.66 50.05 123.18 47.84 120.82H47.86Z" fill="#646569"/>
<path d="M69.33 98.97C69.33 97.69 70.28 96.8701 71.51 96.8701C72.74 96.8701 73.69 97.69 73.69 98.97C73.69 100.25 72.74 101.07 71.51 101.07C70.28 101.07 69.33 100.2 69.33 98.97ZM69.91 105.01H73.07V124.19H69.91V105.01Z" fill="#646569"/>
<path d="M79.36 105.01H81.97L82.24 107.78H82.35C84.13 105.98 86.05 104.54 88.61 104.54C92.54 104.54 94.31 107.15 94.31 112.04V124.19H91.15V112.46C91.15 108.89 90.1 107.36 87.63 107.36C85.72 107.36 84.4 108.36 82.53 110.31V124.2H79.37V105.02L79.36 105.01Z" fill="#646569"/>
<path d="M99.05 114.63C99.05 108.41 102.87 104.54 107.13 104.54C109.3 104.54 110.72 105.38 112.36 106.76L112.23 103.47V96.0801H115.39V124.19H112.78L112.51 121.93H112.4C110.95 123.42 108.96 124.67 106.74 124.67C102.08 124.67 99.05 121.02 99.05 114.63ZM112.22 109.27C110.63 107.81 109.19 107.28 107.67 107.28C104.69 107.28 102.31 110.24 102.31 114.61C102.31 119.21 104.16 121.95 107.43 121.95C109.16 121.95 110.65 121.09 112.22 119.33V109.27Z" fill="#646569"/>
<path d="M121.12 98.97C121.12 97.69 122.07 96.8701 123.3 96.8701C124.53 96.8701 125.48 97.69 125.48 98.97C125.48 100.25 124.53 101.07 123.3 101.07C122.07 101.07 121.12 100.2 121.12 98.97ZM121.7 105.01H124.86V124.19H121.7V105.01Z" fill="#646569"/>
<path d="M129.77 114.63C129.77 108.23 133.98 104.54 138.75 104.54C141.2 104.54 142.9 105.58 144.21 106.79L142.6 108.94C141.51 107.93 140.36 107.25 138.89 107.25C135.51 107.25 133.03 110.24 133.03 114.64C133.03 119.04 135.37 121.98 138.8 121.98C140.51 121.98 142.02 121.13 143.18 120.07L144.55 122.25C142.87 123.79 140.75 124.69 138.52 124.69C133.55 124.69 129.77 121 129.77 114.65V114.63Z" fill="#646569"/>
<path d="M147.13 119.21C147.13 115.03 150.64 112.94 158.6 112.05C158.6 109.58 157.8 107.21 154.75 107.21C152.59 107.21 150.64 108.26 149.18 109.27L147.94 107.05C149.66 105.89 152.28 104.55 155.27 104.55C159.83 104.55 161.75 107.66 161.75 112.44V124.21H159.14L158.87 121.92H158.77C156.99 123.44 154.91 124.69 152.6 124.69C149.47 124.69 147.13 122.7 147.13 119.24V119.21ZM158.59 119.51V114.18C152.33 114.95 150.22 116.53 150.22 118.98C150.22 121.16 151.66 122.05 153.49 122.05C155.32 122.05 156.78 121.15 158.59 119.51Z" fill="#646569"/>
<path d="M167.65 120.34V96.0801H170.81V120.57C170.81 121.56 171.23 121.96 171.69 121.96C171.87 121.96 172.03 121.96 172.38 121.88L172.81 124.36C172.36 124.53 171.82 124.66 170.99 124.66C168.62 124.66 167.65 123.11 167.65 120.33V120.34Z" fill="#646569"/>
<path d="M176.87 98.97C176.87 97.69 177.82 96.8701 179.05 96.8701C180.28 96.8701 181.23 97.69 181.23 98.97C181.23 100.25 180.28 101.07 179.05 101.07C177.82 101.07 176.87 100.2 176.87 98.97ZM177.44 105.01H180.6V124.19H177.44V105.01Z" fill="#646569"/>
<path d="M184.83 122L186.39 119.86C188.01 121.2 189.66 122.13 191.9 122.13C194.35 122.13 195.57 120.79 195.57 119.15C195.57 117.18 193.37 116.3 191.3 115.51C188.68 114.53 185.73 113.2 185.73 109.97C185.73 106.74 188.12 104.53 192.17 104.53C194.49 104.53 196.53 105.51 197.97 106.68L196.46 108.76C195.17 107.78 193.85 107.05 192.2 107.05C189.85 107.05 188.76 108.34 188.76 109.8C188.76 111.62 190.79 112.32 192.9 113.13C195.59 114.17 198.59 115.3 198.59 118.95C198.59 122.06 196.18 124.65 191.78 124.65C189.13 124.65 186.57 123.5 184.81 121.99L184.83 122Z" fill="#646569"/>
<path d="M202.99 105.01H205.6L205.87 107.79H205.98C207.61 105.98 209.56 104.54 211.79 104.54C214.64 104.54 216.17 105.94 216.95 108.19C218.89 106.03 220.83 104.54 223.11 104.54C226.94 104.54 228.79 107.15 228.79 112.04V124.19H225.63V112.46C225.63 108.89 224.53 107.36 222.16 107.36C220.71 107.36 219.21 108.33 217.48 110.31V124.2H214.32V112.47C214.32 108.9 213.22 107.37 210.85 107.37C209.45 107.37 207.9 108.34 206.17 110.32V124.21H203.01V105.03L202.99 105.01Z" fill="#646569"/>
<path d="M233.46 114.63C233.46 108.23 237.53 104.54 242.11 104.54C246.69 104.54 250.76 108.23 250.76 114.63C250.76 121.03 246.69 124.67 242.11 124.67C237.53 124.67 233.46 120.98 233.46 114.63ZM247.5 114.63C247.5 110.23 245.32 107.24 242.11 107.24C238.9 107.24 236.73 110.23 236.73 114.63C236.73 119.03 238.9 121.97 242.11 121.97C245.32 121.97 247.5 119.03 247.5 114.63Z" fill="#646569"/>
<path d="M261.67 120.82L263.59 118.56C265.4 120.49 267.92 121.77 270.54 121.77C273.84 121.77 275.81 120.08 275.81 117.56C275.81 114.92 273.98 114.07 271.6 113L267.98 111.36C265.63 110.33 262.88 108.5 262.88 104.69C262.88 100.88 266.23 97.8201 270.81 97.8201C273.8 97.8201 276.46 99.15 278.23 101.03L276.53 103.15C274.99 101.65 273.14 100.72 270.81 100.72C267.99 100.72 266.11 102.19 266.11 104.5C266.11 106.99 268.31 107.93 270.28 108.78L273.87 110.38C276.78 111.67 279.06 113.45 279.06 117.3C279.06 121.39 275.77 124.66 270.47 124.66C266.93 124.66 263.86 123.18 261.65 120.82H261.67Z" fill="#646569"/>
<path d="M282.33 114.63C282.33 108.23 286.4 104.54 290.98 104.54C295.56 104.54 299.63 108.23 299.63 114.63C299.63 121.03 295.56 124.67 290.98 124.67C286.4 124.67 282.33 120.98 282.33 114.63ZM296.37 114.63C296.37 110.23 294.19 107.24 290.98 107.24C287.77 107.24 285.6 110.23 285.6 114.63C285.6 119.03 287.77 121.97 290.98 121.97C294.19 121.97 296.37 119.03 296.37 114.63Z" fill="#646569"/>
<path d="M303.15 114.63C303.15 108.23 307.36 104.54 312.13 104.54C314.58 104.54 316.28 105.58 317.59 106.79L315.98 108.94C314.89 107.93 313.74 107.25 312.27 107.25C308.89 107.25 306.41 110.24 306.41 114.64C306.41 119.04 308.75 121.98 312.18 121.98C313.89 121.98 315.4 121.13 316.56 120.07L317.93 122.25C316.25 123.79 314.13 124.69 311.9 124.69C306.93 124.69 303.15 121 303.15 114.65V114.63Z" fill="#646569"/>
<path d="M321.48 98.97C321.48 97.69 322.43 96.8701 323.66 96.8701C324.89 96.8701 325.84 97.69 325.84 98.97C325.84 100.25 324.89 101.07 323.66 101.07C322.43 101.07 321.48 100.2 321.48 98.97ZM322.06 105.01H325.22V124.19H322.06V105.01Z" fill="#646569"/>
<path d="M330.12 114.63C330.12 108.23 334.19 104.54 338.77 104.54C343.35 104.54 347.42 108.23 347.42 114.63C347.42 121.03 343.35 124.67 338.77 124.67C334.19 124.67 330.12 120.98 330.12 114.63ZM344.16 114.63C344.16 110.23 341.98 107.24 338.77 107.24C335.56 107.24 333.39 110.23 333.39 114.63C333.39 119.03 335.56 121.97 338.77 121.97C341.98 121.97 344.16 119.03 344.16 114.63Z" fill="#646569"/>
<path d="M352.33 105.01H354.94L355.21 107.23H355.32C357.01 105.79 359.11 104.54 361.27 104.54C366.09 104.54 368.67 108.39 368.67 114.31C368.67 120.85 364.85 124.66 360.58 124.66C358.87 124.66 357.12 123.85 355.41 122.44L355.49 125.79V132.28H352.33V105.01ZM365.4 114.34C365.4 110.11 363.99 107.27 360.48 107.27C358.9 107.27 357.31 108.16 355.49 109.89V119.94C357.18 121.4 358.8 121.94 360.04 121.94C363.13 121.94 365.41 119.08 365.41 114.34H365.4Z" fill="#646569"/>
<path d="M372.27 114.63C372.27 108.23 376.34 104.54 380.92 104.54C385.5 104.54 389.57 108.23 389.57 114.63C389.57 121.03 385.5 124.67 380.92 124.67C376.34 124.67 372.27 120.98 372.27 114.63ZM386.31 114.63C386.31 110.23 384.13 107.24 380.92 107.24C377.71 107.24 375.54 110.23 375.54 114.63C375.54 119.03 377.71 121.97 380.92 121.97C384.13 121.97 386.31 119.03 386.31 114.63Z" fill="#646569"/>
<path d="M394.33 120.34V96.0801H397.49V120.57C397.49 121.56 397.91 121.96 398.37 121.96C398.55 121.96 398.71 121.96 399.06 121.88L399.49 124.36C399.04 124.53 398.5 124.66 397.67 124.66C395.3 124.66 394.33 123.11 394.33 120.33V120.34Z" fill="#646569"/>
<path d="M403.53 99.96L408.97 93.3899L411.19 95.54L405.16 101.57L403.53 99.95V99.96ZM404.12 105.01H407.28V124.19H404.12V105.01Z" fill="#646569"/>
<path d="M414.13 118.26V107.65H411.35V105.19L414.27 105L414.65 99.6201H417.29V105H422.35V107.64H417.29V118.3C417.29 120.64 418.03 122 420.18 122C420.84 122 421.7 121.74 422.31 121.48L422.92 123.93C421.87 124.29 420.62 124.64 419.46 124.64C415.49 124.64 414.14 122.05 414.14 118.24L414.13 118.26Z" fill="#646569"/>
<path d="M425.98 98.97C425.98 97.69 426.93 96.8701 428.16 96.8701C429.39 96.8701 430.34 97.69 430.34 98.97C430.34 100.25 429.39 101.07 428.16 101.07C426.93 101.07 425.98 100.2 425.98 98.97ZM426.56 105.01H429.72V124.19H426.56V105.01Z" fill="#646569"/>
<path d="M434.62 114.63C434.62 108.23 438.83 104.54 443.6 104.54C446.05 104.54 447.75 105.58 449.06 106.79L447.45 108.94C446.36 107.93 445.21 107.25 443.74 107.25C440.36 107.25 437.88 110.24 437.88 114.64C437.88 119.04 440.22 121.98 443.65 121.98C445.36 121.98 446.87 121.13 448.03 120.07L449.4 122.25C447.72 123.79 445.6 124.69 443.37 124.69C438.4 124.69 434.62 121 434.62 114.65V114.63Z" fill="#646569"/>
<path d="M451.34 114.63C451.34 108.23 455.41 104.54 459.99 104.54C464.57 104.54 468.64 108.23 468.64 114.63C468.64 121.03 464.57 124.67 459.99 124.67C455.41 124.67 451.34 120.98 451.34 114.63ZM465.37 114.63C465.37 110.23 463.19 107.24 459.98 107.24C456.77 107.24 454.6 110.23 454.6 114.63C454.6 119.03 456.77 121.97 459.98 121.97C463.19 121.97 465.37 119.03 465.37 114.63Z" fill="#646569"/>
<path d="M468.71 61.01C468.33 61.37 467.95 61.72 467.55 62.05C461.7 66.96 454.55 68.44 447.11 67.02C445.71 66.75 444.32 66.3999 442.96 65.9699C442.38 65.7899 437.15 64.2801 437.16 63.8701L437.39 52.4699C438.27 53.1199 446.79 57.6499 455.15 54.4099C456.05 54.0499 456.88 53.6499 457.61 53.1699C459.55 51.9099 459.85 49.1099 458.28 47.4099C450.17 38.5799 432.2 37.6199 437.15 19.4699C440.15 8.44994 455.85 3.80987 468.64 9.39987V20.9799C468.64 20.9799 468.59 21.01 468.55 21.04C462.44 18.33 452.43 16.4099 450.44 23.1999C448.32 30.4999 469.21 31.3901 473.53 44.6001C475.89 50.6401 473.08 56.78 468.69 61.01H468.71Z" fill="black"/>
<path d="M361.93 39.3999C354.64 28.5699 347.35 17.7499 340.06 6.91992H327.14V66.5901H340.06V32.5901C347.35 43.9201 354.64 55.2501 361.93 66.5801H375.52V6.90991H361.93V39.3999Z" fill="black"/>
<path d="M429.8 6.90991V44.6201C429.8 57.2301 419.6 67.4299 406.99 67.4299C394.38 67.4299 384.16 57.2301 384.16 44.6201V6.90991H397.23V45.8999C397.23 51.2799 401.61 55.6399 406.99 55.6399C412.37 55.6399 416.73 51.2799 416.73 45.8999V6.90991H429.8Z" fill="black"/>
<path d="M12.83 55.3201V40.1101H32.65V28.9399H12.83V16.3301H33.87V4.67993H0V66.49H35.02V55.3201H12.83Z" fill="black"/>
<path d="M201.38 0H188.54V66.79H201.38V0Z" fill="black"/>
<path d="M38.78 55.24C41.79 56.46 45.92 57.71 50.14 57.54C50.66 57.52 54.08 57.29 55 55.76C55.27 55.3 55.4 54.7699 55.4 54.1799C55.4 52.1299 54.19 51.1501 49.58 49.5901C41.4 46.8101 38.25 42.3101 38.33 37.5601C38.33 30.1101 44.64 24.46 54.43 24.46C59.04 24.46 61.4601 25.26 63.8801 26.49C63.7701 29.08 63.9901 31.61 63.8801 34.21C61.2001 33.33 58.28 31.89 54.34 32.74C54.34 32.74 51.3 33.4099 50.49 34.8899C50.26 35.3099 50.14 35.7901 50.14 36.3401C50.14 38.2201 51.68 39.2099 56.53 40.9299C64.05 43.5499 67.2101 47.39 67.2901 53.29C67.2901 55.46 66.8001 57.46 65.8201 59.21C62.2801 65.54 52.73 66.09 50.14 66.23C47.69 66.36 43.62 66.2299 38.78 64.4099V55.24Z" fill="black"/>
<path d="M158.2 49.3C158.61 54.44 163.7 56.8899 169.52 56.8899C171.54 56.8899 174.67 56.54 176.96 56.2C179.22 55.86 181.08 55.4799 182.35 55.1899C182.31 58.0199 182.27 60.8499 182.24 63.6699C178.14 65.2999 173.14 66.1201 167.73 66.1201C154.11 66.1201 146.32 58.28 146.32 45.79C146.32 35.66 152.64 24.48 166.59 24.48C179.55 24.48 184.47 34.5199 184.47 44.3999C184.47 46.5199 184.22 48.4 184.06 49.3H158.2ZM172.88 40.8C172.88 37.78 171.57 32.72 165.83 32.72C160.58 32.72 158.45 37.4501 158.12 40.8H172.88Z" fill="black"/>
<path d="M100.8 63.8401C98.75 64.8101 94.99 66.2401 90.18 66.1101C88.06 66.0601 80.39 65.8599 74.81 59.6399C69.95 54.2199 69.77 47.7001 69.77 45.5901C69.77 32.0201 79.3 24.46 91.15 24.46C95.74 24.46 99.23 25.4 100.8 26.23C100.63 28.89 100.46 31.54 100.28 34.2C98.89 33.53 95.91 32.3199 92.08 32.6699C90.31 32.8299 86.75 33.16 84 36.01C80.97 39.15 80.93 43.26 80.91 44.98C80.89 46.85 80.84 51.0901 83.88 54.1201C86.46 56.6801 89.78 56.9101 91.92 57.0601C96.07 57.3401 99.28 55.98 100.8 55.21V63.8401Z" fill="black"/>
<path d="M130.44 65.9199V59.99C127.05 64.47 123.1 66.71 118.6 66.71C114.61 66.71 111.38 65.32 108.9 62.54C106.42 59.76 105.17 55.91 105.17 50.99V24.47H116.7V50.0801C116.7 55.3401 118.63 57.97 122.48 57.97C124.65 57.97 126.51 57.0101 128.05 55.1001C129.59 53.1901 130.36 51.7701 130.36 50.8701V24.47H141.97V65.9199H130.44Z" fill="black"/>
<path d="M242.09 59.21C242.26 59.53 243.21 61.4601 242.33 63.5801C241.8 64.8501 240.87 65.5801 240.43 65.8801C238.9 66.4601 236.83 66.96 234.42 66.79C232.77 66.68 231.06 66.56 229.66 65.29C228.84 64.54 228.28 63.52 227.99 62.22C223.99 65.27 219.97 66.79 215.95 66.79C213.11 66.79 210.7 65.79 208.71 63.79C206.72 61.79 205.73 59.4701 205.73 56.8201C205.73 53.2801 206.76 50.42 208.81 48.25C210.86 46.08 217.08 43.2801 227.46 39.8501C227.72 35.3101 225.6 33.04 221.11 33.04C216.23 33.04 211.74 35.3101 207.63 39.8501V29.4199C212.43 26.1199 217.71 24.46 223.47 24.46C233.8 24.46 238.96 28.5901 238.96 36.8401V55.3999C238.96 56.7399 239.28 57.61 239.91 58C240.16 58.15 240.41 58.07 240.86 58.25C241.45 58.48 241.85 58.88 242.11 59.2L242.09 59.21ZM227.44 56.1399V46.28C223.59 47.78 220.95 49.1301 219.52 50.3201C218.09 51.5201 217.37 53.0301 217.37 54.8801C217.37 56.0601 217.73 57.0799 218.45 57.9299C219.17 58.7799 220.05 59.2 221.08 59.2C223.25 59.2 225.37 58.1801 227.43 56.1301L227.44 56.1399Z" fill="black"/>
<path d="M470.08 76.9099H0V81.03H470.08V76.9099Z" fill="url(#paint0_linear_326_706)"/>
<path d="M291.47 59.6499C291.17 59.6799 290.85 59.6899 290.55 59.6899C290.19 59.6899 289.85 59.6799 289.5 59.6599C290.18 59.6899 290.84 59.6899 291.47 59.6499Z" fill="#EA0C0E"/>
<path d="M292.48 17.8301C297.01 17.8301 301.17 19.38 304.47 21.98H317.94C316.34 19.15 314.31 16.62 311.94 14.47C306.8 9.79997 300.06 6.95991 292.68 6.90991H292.48C287.93 6.90991 283.62 7.98013 279.77 9.88013C281.69 13.2601 283.99 16.1499 286.19 18.8899C288.16 18.2099 290.28 17.8301 292.48 17.8301Z" fill="#FD8813"/>
<path d="M275.59 46.73C274 43.92 273.09 40.68 273.09 37.22C273.09 28.72 278.57 21.5099 286.19 18.8899C283.99 16.1499 281.68 13.2601 279.77 9.88013C271.11 14.1501 264.8 22.64 263.36 32.77C263.34 32.87 263.33 32.9601 263.32 33.0601C263.31 33.1601 263.29 33.2601 263.28 33.3601C263.26 33.5301 263.24 33.7001 263.22 33.8701C263.2 34.0801 263.18 34.29 263.16 34.5C263.12 35.01 263.08 35.53 263.06 36.04C263.06 36.17 263.06 36.2999 263.05 36.4299C263.05 36.5499 263.05 36.67 263.05 36.79C263.05 36.93 263.05 37.07 263.05 37.21C263.05 42.88 264.56 48.18 267.19 52.72C269.14 49.44 272.66 48.51 275.61 46.72L275.59 46.73Z" fill="#008834"/>
<path d="M275.59 46.73C272.64 48.51 269.12 49.45 267.17 52.73C271.38 59.99 278.45 65.2699 286.78 66.9399C287.57 63.3599 289.1 60.0299 289.83 56.4299C283.7 55.5999 278.49 51.89 275.58 46.73H275.59Z" fill="#0B2285"/>
<path d="M303.74 53.01C300.57 55.28 296.68 56.6201 292.48 56.6201C291.58 56.6201 290.7 56.5599 289.84 56.4399C289.11 60.0399 287.57 63.3699 286.79 66.95C288.45 67.28 290.15 67.49 291.89 67.52C292 67.52 292.1 67.52 292.21 67.52C292.31 67.52 292.4 67.52 292.48 67.52H292.69C303.25 67.44 312.49 61.65 317.62 53H303.74V53.01Z" fill="#EA0C0E"/>
<defs>
<linearGradient id="paint0_linear_326_706" x1="0" y1="118.28" x2="470.08" y2="118.28" gradientUnits="userSpaceOnUse">
<stop stop-color="#8568A7"/>
<stop offset="0.15" stop-color="#59AFC1"/>
<stop offset="0.34" stop-color="#83AB81"/>
<stop offset="0.65" stop-color="#D4B85E"/>
<stop offset="0.78" stop-color="#EA7A57"/>
<stop offset="0.88" stop-color="#C88769"/>
<stop offset="1" stop-color="#936397"/>
</linearGradient>
</defs>
</svg>
